<?xml version="1.0" standalone="no"?>
<!DOCTYPE svg PUBLIC "-//W3C//DTD SVG 20010904//EN"
 "http://www.w3.org/TR/2001/REC-SVG-20010904/DTD/svg10.dtd">
<svg version="1.0" xmlns="http://www.w3.org/2000/svg"
 width="70.000000pt" height="70.000000pt" viewBox="0 0 70.000000 70.000000"
 preserveAspectRatio="xMidYMid meet">
<metadata>
Created by potrace 1.14, written by Peter Selinger 2001-2017
</metadata>
<g transform="translate(0.000000,70.000000) scale(0.100000,-0.100000)"
fill="#000000" stroke="none">
<path d="M0 350 l0 -350 350 0 350 0 0 350 0 350 -350 0 -350 0 0 -350z m680
0 l0 -330 -330 0 -330 0 0 330 0 330 330 0 330 0 0 -330z"/>
<path d="M90 563 c0 -5 7 -45 16 -90 15 -76 19 -83 40 -83 20 0 26 9 42 63
l19 62 19 -63 c17 -56 21 -62 43 -60 23 3 26 11 41 91 l17 87 -23 0 c-19 0
-23 -8 -31 -57 l-9 -58 -18 58 c-15 49 -21 58 -39 55 -16 -2 -25 -16 -38 -58
l-17 -55 -7 40 c-11 66 -16 75 -36 75 -10 0 -19 -3 -19 -7z"/>
<path d="M350 480 l0 -90 50 0 c43 0 50 3 50 20 0 16 -7 20 -30 20 -23 0 -30
4 -30 20 0 16 7 20 30 20 20 0 30 5 30 15 0 10 -10 15 -30 15 -23 0 -30 4 -30
20 0 16 7 20 30 20 20 0 30 5 30 15 0 11 -12 15 -50 15 l-50 0 0 -90z"/>
<path d="M480 479 l0 -91 56 4 c33 3 60 11 65 19 13 21 11 55 -6 69 -11 9 -12
17 -4 31 19 36 -5 59 -61 59 l-50 0 0 -91z m75 41 c0 -8 -8 -16 -17 -18 -13
-2 -18 3 -18 18 0 15 5 20 18 18 9 -2 17 -10 17 -18z m13 -71 c3 -17 -23 -33
-39 -23 -5 3 -9 14 -9 25 0 15 6 20 22 17 13 -2 24 -10 26 -19z"/>
<path d="M44 297 c-3 -8 -4 -49 -2 -93 3 -73 5 -79 26 -82 104 -15 165 116 79
168 -37 23 -95 26 -103 7z m88 -44 c10 -9 18 -23 18 -32 0 -26 -29 -61 -51
-61 -16 0 -19 7 -19 55 0 60 15 71 52 38z"/>
<path d="M214 297 c-3 -8 -4 -49 -2 -93 l3 -79 53 -3 c47 -3 52 -1 52 17 0 17
-6 21 -30 21 -23 0 -30 4 -30 20 0 16 7 20 30 20 20 0 30 5 30 15 0 10 -10 15
-30 15 -23 0 -30 4 -30 20 0 16 7 20 30 20 23 0 30 4 30 20 0 17 -7 20 -50 20
-33 0 -52 -5 -56 -13z"/>
<path d="M372 294 c-16 -11 -22 -24 -20 -41 3 -28 11 -34 72 -58 32 -13 37
-17 26 -30 -17 -21 -37 -19 -57 5 -23 27 -45 26 -41 -2 8 -58 122 -63 142 -6
12 35 -11 63 -59 72 -39 8 -54 24 -34 37 19 12 25 11 43 -6 19 -19 46 -19 46
-1 0 20 -39 46 -70 46 -14 0 -36 -7 -48 -16z"/>
<path d="M520 215 c0 -87 2 -95 19 -95 16 0 20 8 23 42 l3 42 28 -42 c20 -31
34 -42 52 -42 32 0 31 7 -10 55 l-34 39 36 48 35 48 -26 0 c-19 0 -33 -11 -53
-42 l-28 -42 -3 42 c-3 34 -7 42 -23 42 -17 0 -19 -8 -19 -95z"/>
</g>
</svg>
