<?xml version="1.0" standalone="no"?>
<!DOCTYPE svg PUBLIC "-//W3C//DTD SVG 20010904//EN"
 "http://www.w3.org/TR/2001/REC-SVG-20010904/DTD/svg10.dtd">
<svg version="1.0" xmlns="http://www.w3.org/2000/svg"
 width="769.000000pt" height="769.000000pt" viewBox="0 0 769.000000 769.000000"
 preserveAspectRatio="xMidYMid meet">
<metadata>
Created by potrace 1.14, written by Peter Selinger 2001-2017
</metadata>
<g transform="translate(0.000000,769.000000) scale(0.100000,-0.100000)"
fill="#000000" stroke="none">
<path d="M3609 7686 c-2 -2 -47 -7 -99 -11 -52 -3 -97 -8 -100 -10 -3 -1 -32
-6 -65 -9 -101 -12 -146 -19 -255 -41 -39 -9 -113 -24 -136 -29 -48 -10 -244
-67 -314 -91 -41 -14 -79 -27 -85 -29 -48 -15 -214 -81 -285 -114 -147 -67
-322 -159 -445 -235 -134 -83 -371 -255 -475 -347 -144 -126 -304 -283 -377
-369 -15 -18 -37 -43 -48 -55 -11 -11 -55 -66 -98 -121 -43 -55 -84 -107 -90
-115 -33 -41 -141 -208 -201 -309 -132 -224 -250 -479 -333 -726 -47 -138
-117 -402 -127 -473 -3 -24 -8 -47 -10 -51 -3 -4 -8 -30 -11 -57 -4 -27 -8
-56 -10 -64 -3 -8 -7 -44 -11 -80 -3 -36 -8 -67 -10 -70 -17 -31 -26 -603 -11
-745 4 -38 9 -97 13 -130 31 -326 148 -762 296 -1100 156 -355 390 -724 624
-985 22 -25 52 -58 65 -74 21 -24 221 -224 268 -266 63 -57 202 -169 291 -233
58 -42 110 -80 115 -84 28 -22 96 -63 103 -63 5 0 17 -9 27 -20 10 -11 21 -20
26 -20 4 0 36 -17 70 -38 98 -59 310 -164 448 -222 365 -153 742 -246 1161
-287 101 -9 570 -9 655 0 33 4 78 9 100 12 70 7 192 24 225 30 14 3 34 7 45 9
89 17 192 40 255 57 41 11 80 22 85 23 287 75 700 254 965 421 138 86 317 211
348 242 7 7 17 13 20 13 4 0 19 10 32 23 14 12 55 47 90 77 73 62 71 60 171
156 211 203 405 436 554 669 31 50 65 101 74 115 18 29 26 42 75 135 21 39 41
75 45 80 15 20 120 253 159 350 60 150 115 325 167 525 9 39 55 270 60 310 3
25 8 56 10 70 23 148 28 246 29 500 1 245 -4 349 -24 490 -5 36 -12 88 -15
115 -4 28 -8 57 -10 65 -2 8 -7 30 -10 48 -65 384 -242 863 -452 1222 -89 151
-270 420 -303 450 -3 3 -29 34 -59 70 -289 351 -648 656 -1032 878 -417 240
-913 415 -1354 478 -27 4 -57 8 -65 9 -8 2 -44 6 -80 10 -36 3 -81 9 -100 12
-39 5 -566 13 -571 9z"/>
</g>
</svg>
